<?xml version="1.0" encoding="utf-8"?>
<!-- Generator: Adobe Illustrator 18.0.0, SVG Export Plug-In . SVG Version: 6.00 Build 0)  -->
<!DOCTYPE svg PUBLIC "-//W3C//DTD SVG 1.1//EN" "http://www.w3.org/Graphics/SVG/1.1/DTD/svg11.dtd">
<svg version="1.1" id="Layer_3" xmlns="http://www.w3.org/2000/svg" xmlns:xlink="http://www.w3.org/1999/xlink" x="0px" y="0px"
	 width="307.7px" height="78.8px" viewBox="0 0 307.7 78.8" enable-background="new 0 0 307.7 78.8" xml:space="preserve">
<g>
	<path fill="#3887be" d="M65.4,0H11.1C4.9,0,0,4.9,0,11.1v23.2c13.4-14.5,34.8-23.5,63.5-24.2h2.1l0.2,2.1
		c1.6,21.7-4.2,38.4-16.1,50.6c-7.6,7.8-19.1,13.1-27.8,15.9h43.5c6,0,11.1-4.9,11.1-11.1V11C76.4,4.9,71.4,0,65.4,0"/>
	<path fill="#3887be" d="M60.5,15.6C33.2,16.6,14.3,26.3,2.1,40.3C1.4,41.2,0.7,42.1,0,43v34.1c8.8-0.4,31.1-3.4,46.3-18.9
		c9.7-9.9,14.3-21.9,14.3-39.1C60.6,17.7,60.6,17.1,60.5,15.6z M18.7,33.8h21.2V55H18.7V33.8z"/>
	<path fill="#3887be" d="M116,30.2h-7.4c-5.3,0-12,0-15.6,6.2c-2.5,4.2-2.3,16.3,0.2,20.7c3.4,6.2,10.8,6.2,15.6,6h9.9
		c6.9,0,12.7-0.7,14.1-8h-6.5c-1.6,2.7-4.1,2.7-8,2.5h-11.5c-2.1,0-5.3,0-7.4-2.1c-1.9-1.9-2.1-4.6-2.1-6.7c0.9,0,35.5,0,35.5,0
		s0-1.4,0-1.8c0-3.7-0.4-8.5-1.9-11C128.7,32.2,123.6,30.2,116,30.2z M123.9,37.1c3.2,1.6,2.7,6.2,2.7,6.5c-0.7,0-28.3,0-29.2,0
		c0-2.3,0.2-4.9,3-6.5c0.9-0.5,1.9-0.9,4.2-1.1h14.5C119.3,35.9,121.8,35.9,123.9,37.1z"/>
	<path fill="#3887be" d="M145.3,30.2h-5.5v32.9h6v-14v-1.2c0-4.1,0-8.3,3.9-10.6c3.5-2.1,18.2-2.1,21.9,0c2.5,1.4,2.5,6,2.5,8.8V47
		v16.1h6V45.6c0-4.9,0-9-3-11.7c-6-5.3-22.6-3.5-22.8-3.5c-3.9,0.5-6.5,1.8-8.8,4.8c0-1.4,0-5.1,0-5.1L145.3,30.2"/>
	<path fill="#3887be" d="M197.4,22.6h-5.7c0,0,0,6.9,0,7.6c-0.7,0-6.7,0-6.7,0v5.5c0,0,6,0,6.7,0c0,0.7,0,14,0,14.3
		c0,4.1,0.4,9,4.9,11.5c3.7,2.1,15.9,2.3,19.3,0.2c4.4-2.7,4.4-7.1,4.2-11v-1.1h-5.5v1.2c0,2.1-0.4,4.9-2.3,6.2
		c-3.4,1.9-10.8,0.9-12.2,0c-2.3-1.4-2.5-3.7-2.5-7.4c0-0.4,0-2.8,0-2.8s0-10.4,0-11.3c0.9,0,21.7,0,21.7,0V30c0,0-20.9,0-21.7,0
		c0-0.7,0-7.6,0-7.6L197.4,22.6"/>
	<path fill="#3887be" d="M233.8,34.1c0-1.1,0-3.7,0-3.7H228v32.9h6V47c0-3.5,0-8,3.2-9.9c3-1.8,14-1.8,16.6-0.4c3,1.6,3,4.4,2.8,6.5
		v1.2h5.7c0,0,0.4-6.7-1.4-9.4c-2.7-4.6-8.7-4.8-10.6-4.8h-1.4C245.2,30.2,238.3,29.9,233.8,34.1"/>
	<path fill="#3887be" d="M304.6,33.9c-3.5-3.7-8.5-3.7-14.5-3.7h-8.8c-5.1,0-8.3,0.2-11.1,2.8c-1.8,1.8-2.1,4.1-2.3,6h6.4
		c0,0,0-0.4,0.2-1.4c0.4-1.8,3.5-2.1,7.2-2.1h8.7c4.4,0,7.4,0,9.4,1.8c1.6,1.6,1.6,3.4,1.6,6.5c0,0.4,0,1.1,0,1.2
		c-2.1-1.9-4.8-1.9-7.4-1.9h-1.6h-12.7c-4.9,0-9.7,0-12.2,3.9c-1.6,2.5-1.2,9.9,0,11.8c2.3,4.1,7.4,3.9,11.8,3.9h1.4h11.7
		c3,0,6.5-0.2,8.7-1.9c0,0.7,0,1.9,0,1.9h6V45.2C307.4,40.7,307.4,36.9,304.6,33.9z M301.2,53.6c0,3-1.9,4.6-4.9,4.6h-19.6
		c-2.8,0-4.9-1.9-4.9-4.6v-0.7c0-2.7,2.1-4.6,4.9-4.6h19.6c3,0,4.9,1.9,4.9,4.6V53.6z"/>
</g>
</svg>
